<svg width="120" height="41" viewBox="0 0 120 41" fill="none" xmlns="http://www.w3.org/2000/svg">
<rect width="120" height="41" rx="20.5" fill="#0C0A0A"/>
<path d="M34.65 21.68V22.41C34.65 23.35 34.8367 24.01 35.21 24.39C35.59 24.7633 36.2567 24.95 37.21 24.95H38.85C39.69 24.95 40.3 24.8433 40.68 24.63C41.0667 24.41 41.2967 24.0333 41.37 23.5C41.3967 23.3333 41.45 23.2067 41.53 23.12C41.6167 23.0333 41.7467 22.99 41.92 22.99C42.0933 22.99 42.2233 23.04 42.31 23.14C42.4033 23.2333 42.44 23.3667 42.42 23.54C42.3333 24.38 41.9967 25 41.41 25.4C40.8233 25.8 39.97 26 38.85 26H37.21C35.9633 26 35.05 25.7133 34.47 25.14C33.89 24.56 33.6 23.65 33.6 22.41V20.15C33.6 18.89 33.89 17.9733 34.47 17.4C35.05 16.82 35.9633 16.5367 37.21 16.55H38.85C40.0967 16.55 41.0067 16.84 41.58 17.42C42.16 17.9933 42.45 18.9033 42.45 20.15V21.15C42.45 21.5033 42.2767 21.68 41.93 21.68H34.65ZM37.21 17.6C36.2567 17.5867 35.59 17.77 35.21 18.15C34.8367 18.5233 34.65 19.19 34.65 20.15V20.63H41.4V20.15C41.4 19.1967 41.2133 18.5333 40.84 18.16C40.4667 17.7867 39.8033 17.6 38.85 17.6H37.21ZM46.4508 26C46.0974 26 45.9208 25.8233 45.9208 25.47V17.07C45.9208 16.7233 46.0974 16.55 46.4508 16.55C46.7974 16.55 46.9708 16.7233 46.9708 17.07V18.03C47.6041 17.0433 48.7508 16.55 50.4108 16.55H50.9708C52.2174 16.55 53.1274 16.84 53.7008 17.42C54.2808 17.9933 54.5708 18.9033 54.5708 20.15V25.47C54.5708 25.8233 54.3974 26 54.0508 26C53.6974 26 53.5208 25.8233 53.5208 25.47V20.15C53.5208 19.1967 53.3308 18.5333 52.9508 18.16C52.5774 17.7867 51.9174 17.6 50.9708 17.6H50.4108C49.3774 17.6 48.5641 17.7633 47.9708 18.09C47.3774 18.4167 47.0441 18.9267 46.9708 19.62V25.47C46.9708 25.8233 46.7974 26 46.4508 26ZM61.5625 25.6C61.4892 25.76 61.3992 25.8667 61.2925 25.92C61.1858 25.9733 61.0625 26 60.9225 26C60.6292 26 60.4225 25.8633 60.3025 25.59L56.5925 17.28C56.4525 16.9533 56.5492 16.7267 56.8825 16.6C57.1958 16.4667 57.4225 16.56 57.5625 16.88L61.2625 25.16H60.6225L64.5625 16.87C64.6358 16.7167 64.7325 16.6167 64.8525 16.57C64.9725 16.5233 65.1092 16.5333 65.2625 16.6C65.5892 16.7467 65.6792 16.98 65.5325 17.3L61.5625 25.6ZM68.252 14.73C67.792 14.73 67.562 14.4933 67.562 14.02V13.57C67.562 13.11 67.792 12.88 68.252 12.88H68.702C69.1487 12.88 69.372 13.11 69.372 13.57V14.02C69.372 14.4933 69.1487 14.73 68.702 14.73H68.252ZM68.482 26C68.1287 26 67.952 25.8233 67.952 25.47V17.07C67.952 16.7233 68.1287 16.55 68.482 16.55C68.8287 16.55 69.002 16.7233 69.002 17.07V25.47C69.002 25.8233 68.8287 26 68.482 26ZM75.5472 26C74.5072 26 73.7439 25.76 73.2572 25.28C72.7772 24.7933 72.5372 24.03 72.5372 22.99C72.5372 21.95 72.7805 21.1867 73.2672 20.7C73.7539 20.2133 74.5139 19.97 75.5472 19.97H80.0972C80.0839 19.09 79.8839 18.4767 79.4972 18.13C79.1172 17.7767 78.4672 17.6 77.5472 17.6H76.3872C75.5405 17.6 74.9205 17.69 74.5272 17.87C74.1339 18.05 73.8905 18.3567 73.7972 18.79C73.7505 18.9567 73.6872 19.08 73.6072 19.16C73.5339 19.2333 73.4139 19.27 73.2472 19.27C73.0739 19.27 72.9372 19.2233 72.8372 19.13C72.7439 19.03 72.7105 18.8967 72.7372 18.73C72.8239 17.97 73.1672 17.4167 73.7672 17.07C74.3739 16.7233 75.2472 16.55 76.3872 16.55H77.5472C78.7939 16.55 79.7039 16.84 80.2772 17.42C80.8572 17.9933 81.1472 18.9033 81.1472 20.15V25.47C81.1472 25.8233 80.9739 26 80.6272 26C80.2739 26 80.0972 25.8233 80.0972 25.47V24.48C79.4572 25.4933 78.3139 26 76.6672 26H75.5472ZM75.5472 24.95H76.6672C77.3139 24.95 77.8805 24.88 78.3672 24.74C78.8605 24.5933 79.2572 24.36 79.5572 24.04C79.8572 23.72 80.0372 23.2933 80.0972 22.76V21.02H75.5472C74.8072 21.02 74.2939 21.1633 74.0072 21.45C73.7272 21.73 73.5872 22.2433 73.5872 22.99C73.5872 23.73 73.7272 24.2433 74.0072 24.53C74.2939 24.81 74.8072 24.95 75.5472 24.95ZM85.2398 26C84.8865 26 84.7098 25.8233 84.7098 25.47V17.07C84.7098 16.7233 84.8865 16.55 85.2398 16.55C85.5865 16.55 85.7598 16.7233 85.7598 17.07V18.61C86.1065 17.9433 86.6065 17.4333 87.2598 17.08C87.9198 16.7267 88.6998 16.55 89.5998 16.55C89.9532 16.55 90.1298 16.7233 90.1298 17.07C90.1298 17.4233 89.9532 17.6 89.5998 17.6C88.4132 17.6 87.4932 17.87 86.8398 18.41C86.1865 18.9433 85.8265 19.7067 85.7598 20.7V25.47C85.7598 25.8233 85.5865 26 85.2398 26Z" fill="#FAF5F5"/>
</svg>
