<svg width="726" height="157" viewBox="0 0 726 157" fill="none" xmlns="http://www.w3.org/2000/svg">
<rect opacity="0.5" width="132" height="132" rx="16" fill="#2A2A2A"/>
<path d="M33.68 109C32.5493 109 31.984 108.435 31.984 107.304V69.448C31.984 68.3173 32.5493 67.752 33.68 67.752C34.7893 67.752 35.344 68.3173 35.344 69.448V105.64H54.8C55.9307 105.64 56.496 106.195 56.496 107.304C56.496 108.435 55.9307 109 54.8 109H33.68ZM88.142 78.76C89.2727 78.76 89.838 79.3147 89.838 80.424V107.304C89.838 108.435 89.2727 109 88.142 109C87.0327 109 86.478 108.435 86.478 107.304V104.264C84.4513 107.421 80.782 109 75.47 109H73.678C69.6887 109 66.766 108.072 64.91 106.216C63.0753 104.36 62.158 101.437 62.158 97.448V80.424C62.158 79.3147 62.7127 78.76 63.822 78.76C64.9527 78.76 65.518 79.3147 65.518 80.424V97.448C65.518 100.499 66.1153 102.632 67.31 103.848C68.526 105.043 70.6487 105.64 73.678 105.64H75.47C78.7767 105.64 81.3793 105.107 83.278 104.04C85.1767 102.973 86.2433 101.341 86.478 99.144V80.424C86.478 79.3147 87.0327 78.76 88.142 78.76ZM135.685 78.696C139.119 78.696 141.573 79.5707 143.045 81.32C144.538 83.0693 145.285 85.96 145.285 89.992V107.368C145.285 108.477 144.73 109.032 143.621 109.032C142.49 109.032 141.925 108.477 141.925 107.368V89.992C141.925 87.176 141.445 85.1493 140.485 83.912C139.525 82.6747 137.925 82.056 135.685 82.056H133.029C130.234 82.056 128.229 82.6747 127.013 83.912C125.818 85.1493 125.221 87.176 125.221 89.992V107.368C125.221 108.477 124.666 109.032 123.557 109.032C122.426 109.032 121.861 108.477 121.861 107.368V89.992C121.861 87.176 121.381 85.1493 120.421 83.912C119.461 82.6747 117.861 82.056 115.621 82.056H112.965C110.17 82.056 108.165 82.6747 106.949 83.912C105.754 85.1493 105.157 87.176 105.157 89.992V107.368C105.157 108.477 104.602 109.032 103.493 109.032C102.362 109.032 101.797 108.477 101.797 107.368V80.424C101.797 79.3147 102.362 78.76 103.493 78.76C104.602 78.76 105.157 79.3147 105.157 80.424V82.92C106.095 81.4053 107.205 80.328 108.485 79.688C109.786 79.0267 111.429 78.696 113.413 78.696H115.621C117.861 78.696 119.653 79.0907 120.997 79.88C122.362 80.648 123.439 81.9173 124.229 83.688C125.167 81.9173 126.319 80.648 127.685 79.88C129.05 79.0907 130.831 78.696 133.029 78.696H135.685ZM164.414 109C161.086 109 158.643 108.232 157.086 106.696C155.55 105.139 154.782 102.696 154.782 99.368C154.782 96.04 155.56 93.5973 157.118 92.04C158.675 90.4827 161.107 89.704 164.414 89.704H178.974C178.931 86.888 178.291 84.9253 177.054 83.816C175.838 82.6853 173.758 82.12 170.814 82.12H167.102C164.392 82.12 162.408 82.408 161.15 82.984C159.891 83.56 159.112 84.5413 158.814 85.928C158.664 86.4613 158.462 86.856 158.206 87.112C157.971 87.3467 157.587 87.464 157.054 87.464C156.499 87.464 156.062 87.3147 155.742 87.016C155.443 86.696 155.336 86.2693 155.422 85.736C155.699 83.304 156.798 81.5333 158.718 80.424C160.659 79.3147 163.454 78.76 167.102 78.76H170.814C174.803 78.76 177.715 79.688 179.55 81.544C181.406 83.3787 182.333 86.2907 182.333 90.28V107.304C182.333 108.435 181.779 109 180.67 109C179.539 109 178.974 108.435 178.974 107.304V104.136C176.926 107.379 173.267 109 167.998 109H164.414ZM164.414 105.64H167.998C170.067 105.64 171.88 105.416 173.438 104.968C175.016 104.499 176.286 103.752 177.246 102.728C178.206 101.704 178.782 100.339 178.974 98.632V93.064H164.414C162.046 93.064 160.403 93.5227 159.486 94.44C158.59 95.336 158.142 96.9787 158.142 99.368C158.142 101.736 158.59 103.379 159.486 104.296C160.403 105.192 162.046 105.64 164.414 105.64ZM195.43 109C194.299 109 193.734 108.435 193.734 107.304V80.424C193.734 79.3147 194.299 78.76 195.43 78.76C196.539 78.76 197.094 79.3147 197.094 80.424V85.352C198.203 83.2187 199.803 81.5867 201.894 80.456C204.006 79.3253 206.502 78.76 209.382 78.76C210.513 78.76 211.078 79.3147 211.078 80.424C211.078 81.5547 210.513 82.12 209.382 82.12C205.585 82.12 202.641 82.984 200.55 84.712C198.459 86.4187 197.307 88.8613 197.094 92.04V107.304C197.094 108.435 196.539 109 195.43 109Z" fill="white"/>
</svg>
